<svg width="170" height="170" viewBox="0 0 170 170" fill="none" xmlns="http://www.w3.org/2000/svg">
<mask id="mask0_504_68423" style="mask-type:alpha" maskUnits="userSpaceOnUse" x="0" y="0" width="170" height="170">
<rect width="170" height="170" rx="40" fill="white"/>
</mask>
<g mask="url(#mask0_504_68423)">
<rect x="-73.1908" y="-31.875" width="485.208" height="349.444" rx="36.4444" fill="#8D46F6"/>
<g filter="url(#filter0_f_504_68423)">
<rect width="204.107" height="119.769" rx="15.7542" transform="matrix(0.709072 -0.705137 0.74783 0.66389 24.7954 11.7031)" fill="url(#paint0_linear_504_68423)"/>
</g>
<g filter="url(#filter1_f_504_68423)">
<path d="M-108.891 90.5235C-109.073 89.4273 -109.164 88.8791 -108.888 88.4679C-108.612 88.0567 -108.07 87.9334 -106.986 87.6868L-47.2378 74.0957L23.296 64.8222C24.4042 64.6765 24.9583 64.6036 25.3546 64.8973C25.7509 65.1911 25.8426 65.7426 26.0261 66.8456L36.1526 127.742C36.3434 128.89 36.4388 129.463 36.1422 129.882C35.8456 130.301 35.2727 130.402 34.127 130.603L-95.9262 153.443C-97.0719 153.644 -97.6447 153.745 -98.0599 153.451C-98.4751 153.157 -98.5705 152.583 -98.7614 151.436L-108.891 90.5235Z" fill="#FCB8FF"/>
</g>
<g filter="url(#filter2_f_504_68423)">
<path d="M87.993 196.462C87.1269 195.766 86.6939 195.418 86.626 194.927C86.5581 194.436 86.8803 193.983 87.5248 193.077L123.041 143.147L169.479 89.253C170.209 88.4063 170.574 87.9829 171.065 87.9381C171.556 87.8932 171.992 88.2435 172.863 88.9442L220.975 127.625C221.881 128.354 222.335 128.718 222.393 129.228C222.45 129.739 222.09 130.195 221.369 131.108L139.569 234.762C138.848 235.675 138.488 236.132 137.982 236.189C137.477 236.246 137.023 235.882 136.117 235.153L87.993 196.462Z" fill="url(#paint1_linear_504_68423)"/>
</g>
<path d="M20.9849 171.791L49.6459 173.701L107.177 69.0992L87.8009 176.245L116.462 178.155L148.942 -1.42183L120.281 -3.3321L62.4813 102.604L82.1265 -5.87515L53.4654 -7.78542L20.9849 171.791Z" fill="white"/>
</g>
<defs>
<filter id="filter0_f_504_68423" x="-0.48724" y="-157.909" width="284.858" height="274.814" filterUnits="userSpaceOnUse" color-interpolation-filters="sRGB">
<feFlood flood-opacity="0" result="BackgroundImageFix"/>
<feBlend mode="normal" in="SourceGraphic" in2="BackgroundImageFix" result="shape"/>
<feGaussianBlur stdDeviation="16.0004" result="effect1_foregroundBlur_504_68423"/>
</filter>
<filter id="filter1_f_504_68423" x="-134.118" y="39.6398" width="195.505" height="139.051" filterUnits="userSpaceOnUse" color-interpolation-filters="sRGB">
<feFlood flood-opacity="0" result="BackgroundImageFix"/>
<feBlend mode="normal" in="SourceGraphic" in2="BackgroundImageFix" result="shape"/>
<feGaussianBlur stdDeviation="12.5278" result="effect1_foregroundBlur_504_68423"/>
</filter>
<filter id="filter2_f_504_68423" x="61.5615" y="62.879" width="185.893" height="198.372" filterUnits="userSpaceOnUse" color-interpolation-filters="sRGB">
<feFlood flood-opacity="0" result="BackgroundImageFix"/>
<feBlend mode="normal" in="SourceGraphic" in2="BackgroundImageFix" result="shape"/>
<feGaussianBlur stdDeviation="12.5278" result="effect1_foregroundBlur_504_68423"/>
</filter>
<linearGradient id="paint0_linear_504_68423" x1="8.12814" y1="16.8425" x2="219.365" y2="38.5897" gradientUnits="userSpaceOnUse">
<stop stop-color="#71E66F"/>
<stop offset="0.953454" stop-color="#11FFA9"/>
</linearGradient>
<linearGradient id="paint1_linear_504_68423" x1="105.157" y1="202.743" x2="202.099" y2="101.968" gradientUnits="userSpaceOnUse">
<stop stop-color="#8D46F6"/>
<stop offset="0.550073" stop-color="#F0667F"/>
<stop offset="0.953454" stop-color="#DE46E4"/>
</linearGradient>
</defs>
</svg>
